# xmcd CD database file
#
# Track frame offsets:
#	150
#	14142
#	24102
#	42982
#	55977
#	72215
#	86895
#	104612
#	115767
#	128595
#	144092
#
# Disc length: 2103 seconds
#
# Revision: 1
# Processed by: cddbd v1.5.2PL0 Copyright (c) Steve Scherf et al.
# Submitted via: CDValet v3.40 - Copyright (c) 1996 - 1998 Greg Leichner
#
DISCID=9108350b
DTITLE=Dobson, Richard - Love Only Love
DYEAR=1900
DGENRE=
TTITLE0=So Afraid Of Love
TTITLE1=Jack The Lad
TTITLE2=Love Never Free
TTITLE3=Low Rider Moon
TTITLE4=I'm Not Afraid Of Forever Anymore
TTITLE5=I Keep On Missing You
TTITLE6=Ni La Vuelvo A Prestar
TTITLE7=For Your Sweet Kiss
TTITLE8=Rise To The Occasion
TTITLE9=Love Only Love
TTITLE10=Since I Met you Baby
EXTD=
EXTT0=
EXTT1=
EXTT2=
EXTT3=
EXTT4=
EXTT5=
EXTT6=
EXTT7=
EXTT8=
EXTT9=
EXTT10=
PLAYORDER=
